# xmcd CD database file
#
# Track frame offsets:
#	150
#	20856
#	35612
#	58367
#	78274
#	92689
#	114674
#	136142
#	153263
#	171005
#	186890
#	208219
#	232060
#	251446
#	268296
#	285148
#	302860
#
# Disc length: 4307 seconds
#
# Revision: 2
# Processed by: cddbd v1.5.2PL0 Copyright (c) Steve Scherf et al.
# Submitted via: CDex 1.51
#
DISCID=f310d111
DTITLE=SANTANA - Love Songs
DYEAR=1995
DGENRE=Latin Rock
TTITLE0=Samba Pa Ti
TTITLE1=Black Magic Woman(Single Version)
TTITLE2=Europa(Earth's Cry Heavens Smile)
TTITLE3=I'll Be Waiting(Single Version)
TTITLE4=Flor D'Luna(Moonflower)
TTITLE5=Stormy
TTITLE6=Life Is A Lady  - Holyday
TTITLE7=Aqua Marine(Single Version)
TTITLE8=The Sensetive Kind
TTITLE9=I Love You Much Too Much
TTITLE10=One With You
TTITLE11=Daughter Of The Night
TTITLE12=Written In Sand
TTITLE13=Before We Go
TTITLE14=Love Is You
TTITLE15=Gypsy Woman
TTITLE16=Full Moon
EXTD=YEAR: 1995
EXTT0=
EXTT1=
EXTT2=
EXTT3=
EXTT4=
EXTT5=
EXTT6=
EXTT7=
EXTT8=
EXTT9=
EXTT10=
EXTT11=
EXTT12=
EXTT13=
EXTT14=
EXTT15=
EXTT16=
PLAYORDER=
